<?xml version="1.0" encoding="UTF-8" standalone="no"?>
<!-- Created with Inkscape (http://www.inkscape.org/) -->

<svg
   width="108.54055mm"
   height="47.921585mm"
   viewBox="0 0 108.54055 47.921585"
   version="1.1"
   id="svg1"
   inkscape:export-filename="InvoiceCreatro.svg"
   inkscape:export-xdpi="96"
   inkscape:export-ydpi="96"
   xmlns:inkscape="http://www.inkscape.org/namespaces/inkscape"
   xmlns:sodipodi="http://sodipodi.sourceforge.net/DTD/sodipodi-0.dtd"
   xmlns="http://www.w3.org/2000/svg"
   xmlns:svg="http://www.w3.org/2000/svg">
  <sodipodi:namedview
     id="namedview1"
     pagecolor="#ffffff"
     bordercolor="#666666"
     borderopacity="1.0"
     inkscape:showpageshadow="2"
     inkscape:pageopacity="0.0"
     inkscape:pagecheckerboard="0"
     inkscape:deskcolor="#d1d1d1"
     inkscape:document-units="mm" />
  <defs
     id="defs1" />
  <g
     inkscape:label="Слой 1"
     inkscape:groupmode="layer"
     id="layer1"
     transform="translate(-76.415636,-103.36135)">
    <g
       id="g4"
       inkscape:export-filename="inoiceCreator.svg"
       inkscape:export-xdpi="96"
       inkscape:export-ydpi="96">
      <path
         style="fill:#0faf81;fill-opacity:1;fill-rule:nonzero;stroke:#a7e9db;stroke-width:1.165;stroke-linecap:butt;stroke-linejoin:miter;stroke-dasharray:none;stroke-opacity:1"
         d="m 78.494644,104.24137 h 92.830146 l 12.95878,22.44528 -13.86436,24.01379 H 77.424557 L 91.08847,127.03385 77.589298,103.6526"
         id="path3" />
      <g
         id="g3"
         transform="translate(72.195661,55.424506)"
         style="fill:#a7e9db;fill-opacity:1;stroke:#a7e9db;stroke-opacity:1">
        <path
           style="font-weight:100;font-size:64px;line-height:1.25;font-family:Raleway;-inkscape-font-specification:'Raleway Thin';white-space:pre;stroke:#a7e9db;stroke-opacity:1"
           d="m 116.72834,210.94656 q -1.344,-1.472 -2.752,-2.432 -1.344,-1.024 -2.88,-1.6 -1.472,-0.576 -3.2,-0.832 -1.664,-0.256 -3.712,-0.256 -7.743996,0 -11.263996,3.008 -3.456,2.944 -3.456,7.872 0,3.264 1.472,5.184 1.472,1.856 4.608,3.008 3.2,1.088 8.255996,2.112 5.056,1.024 8.768,2.368 3.712,1.28 5.696,3.584 2.048,2.24 2.048,6.272 0,2.752 -1.088,4.928 -1.088,2.112 -3.2,3.584 -2.048,1.408 -5.056,2.176 -2.944,0.768 -6.656,0.768 -3.648,0 -6.783996,-0.768 -3.072,-0.768 -5.76,-2.304 -2.688,-1.6 -5.12,-3.968 l 0.96,-0.832 q 1.728,1.792 3.584,3.072 1.856,1.28 3.904,2.112 2.112,0.832 4.416,1.216 2.303996,0.384 4.863996,0.384 6.784,0 10.688,-2.56 3.968,-2.56 3.968,-7.616 0,-3.392 -1.6,-5.44 -1.6,-2.112 -4.992,-3.392 -3.328,-1.344 -8.576,-2.368 -4.991996,-0.96 -8.511996,-2.112 -3.52,-1.216 -5.376,-3.328 -1.792,-2.176 -1.792,-5.952 0,-3.968 1.92,-6.656 1.984,-2.752 5.568,-4.16 3.584,-1.408 8.383996,-1.408 2.88,0 5.248,0.576 2.432,0.512 4.416,1.728 2.048,1.152 3.84,3.136 z m 11.32796,39.424 v -33.216 h 1.28 v 33.216 z m 0,-41.792 v -4.928 h 1.28 v 4.928 z m 59.77598,41.792 h -1.28 v -18.496 q 0,-7.104 -2.176,-10.496 -2.176,-3.456 -6.72,-3.456 -4.736,0 -8.256,3.264 -3.456,3.2 -4.8,8.256 v 20.928 h -1.28 v -18.496 q 0,-7.232 -2.176,-10.56 -2.112,-3.392 -6.656,-3.392 -4.672,0 -8.192,3.2 -3.456,3.136 -4.928,8.256 v 20.992 h -1.28 v -33.216 h 1.28 v 8.576 q 2.176,-4.352 5.568,-6.72 3.392,-2.368 7.296,-2.368 4.16,0 6.912,2.624 2.752,2.624 3.2,7.04 2.496,-4.864 5.76,-7.232 3.328,-2.432 7.552,-2.432 2.624,0 4.48,0.96 1.92,0.896 3.2,2.816 1.28,1.856 1.856,4.736 0.64,2.88 0.64,6.72 z m 25.21606,0.64 q -4.416,0 -7.936,-2.432 -3.456,-2.496 -5.632,-5.824 v 21.248 h -1.28 v -46.848 h 1.28 v 7.04 q 2.112,-3.328 5.632,-5.44 3.584,-2.112 7.36,-2.112 3.52,0 6.4,1.472 2.944,1.472 5.056,3.968 2.176,2.432 3.328,5.504 1.216,3.072 1.216,6.272 0,4.544 -1.92,8.448 -1.92,3.904 -5.376,6.336 -3.456,2.368 -8.128,2.368 z m 0,-1.28 q 3.264,0 5.824,-1.344 2.624,-1.344 4.48,-3.648 1.856,-2.304 2.816,-5.12 1.024,-2.816 1.024,-5.76 0,-3.136 -1.152,-5.952 -1.088,-2.88 -3.136,-5.12 -2.048,-2.24 -4.736,-3.52 -2.624,-1.344 -5.696,-1.344 -1.92,0 -4.16,0.832 -2.176,0.832 -4.16,2.304 -1.984,1.408 -3.264,3.264 -1.28,1.792 -1.408,3.776 v 11.968 q 1.216,2.688 3.264,4.864 2.048,2.176 4.672,3.52 2.688,1.28 5.632,1.28 z m 24.12804,-46.08 h 1.28 v 41.792 q 0,1.856 1.152,2.944 1.152,1.088 3.072,1.088 0.704,0 1.664,-0.128 1.024,-0.192 1.856,-0.448 l 0.448,1.024 q -0.832,0.256 -2.176,0.512 -1.344,0.256 -2.24,0.256 -2.24,0 -3.648,-1.408 -1.408,-1.472 -1.408,-3.84 z m 28.41606,47.36 q -3.264,0 -6.208,-1.344 -2.88,-1.408 -5.12,-3.776 -2.176,-2.432 -3.456,-5.568 -1.216,-3.2 -1.216,-6.784 0,-4.672 2.112,-8.512 2.112,-3.84 5.632,-6.08 3.584,-2.304 7.936,-2.304 4.416,0 8,2.304 3.648,2.304 5.824,6.208 2.176,3.84 2.176,8.64 0,0.192 0,0.384 0,0.128 0,0.32 h -30.4 q 0.32,4.288 2.368,7.744 2.048,3.456 5.312,5.504 3.264,1.984 7.104,1.984 3.84,0 7.168,-1.92 3.328,-1.984 4.736,-5.056 l 1.216,0.32 q -0.896,2.24 -2.944,4.096 -1.984,1.792 -4.672,2.816 -2.688,1.024 -5.568,1.024 z m -14.72,-17.792 h 29.056 q -0.256,-4.48 -2.24,-7.872 -1.984,-3.456 -5.184,-5.44 -3.2,-1.984 -7.168,-1.984 -3.904,0 -7.104,1.984 -3.2,1.984 -5.184,5.44 -1.92,3.456 -2.176,7.872 z"
           id="text1"
           transform="scale(0.26458333)"
           aria-label="Simple" />
        <path
           style="font-weight:100;font-size:64px;line-height:1.25;font-family:Raleway;-inkscape-font-specification:'Raleway Thin';white-space:pre;stroke:#a7e9db;stroke-opacity:1"
           d="m 108.45709,359.54244 v -45.44 h 1.28 v 45.44 z m 38.78403,0 h -1.28 v -18.496 q 0,-7.232 -2.048,-10.56 -1.984,-3.392 -6.464,-3.392 -3.2,0 -6.272,1.536 -3.008,1.472 -5.248,4.096 -2.24,2.56 -3.2,5.824 v 20.992 h -1.28 v -33.216 h 1.28 v 8.576 q 1.408,-2.688 3.712,-4.736 2.304,-2.048 5.12,-3.2 2.88,-1.152 5.824,-1.152 2.56,0 4.416,0.96 1.856,0.896 3.072,2.752 1.216,1.856 1.792,4.736 0.576,2.88 0.576,6.784 z m 20.28809,0 -14.464,-33.216 h 1.408 l 13.632,31.36 13.632,-31.36 h 1.408 l -14.464,33.216 z m 34.81605,0.64 q -3.264,0 -6.144,-1.344 -2.88,-1.344 -5.056,-3.712 -2.176,-2.432 -3.392,-5.504 -1.216,-3.136 -1.216,-6.592 0,-3.52 1.216,-6.592 1.28,-3.136 3.456,-5.504 2.176,-2.432 5.056,-3.776 2.88,-1.344 6.08,-1.344 3.2,0 6.08,1.344 2.88,1.344 5.056,3.776 2.176,2.368 3.392,5.504 1.28,3.072 1.28,6.592 0,3.456 -1.216,6.592 -1.216,3.072 -3.456,5.504 -2.176,2.368 -5.056,3.712 -2.816,1.344 -6.08,1.344 z m -14.528,-17.024 q 0,4.288 1.92,7.872 1.984,3.584 5.248,5.76 3.328,2.112 7.296,2.112 3.968,0 7.296,-2.176 3.328,-2.176 5.312,-5.824 1.984,-3.648 1.984,-7.936 0,-4.288 -1.984,-7.872 -1.984,-3.648 -5.312,-5.824 -3.264,-2.176 -7.232,-2.176 -3.904,0 -7.232,2.24 -3.328,2.176 -5.312,5.824 -1.984,3.648 -1.984,8 z m 38.65603,16.384 v -33.216 h 1.28 v 33.216 z m 0,-41.792 v -4.928 h 1.28 v 4.928 z m 25.66398,42.432 q -3.264,0 -6.208,-1.344 -2.88,-1.408 -5.12,-3.776 -2.24,-2.432 -3.52,-5.568 -1.216,-3.136 -1.216,-6.72 0,-4.8 2.112,-8.64 2.112,-3.84 5.76,-6.08 3.648,-2.24 8.128,-2.24 4.16,0 7.488,1.984 3.328,1.92 4.992,5.44 l -1.28,0.448 q -1.6,-3.072 -4.672,-4.8 -3.072,-1.792 -6.72,-1.792 -4.032,0 -7.36,2.112 -3.264,2.048 -5.248,5.632 -1.92,3.52 -1.92,7.936 0,4.352 1.984,8.064 1.984,3.648 5.312,5.888 3.328,2.176 7.296,2.176 2.624,0 5.12,-0.96 2.496,-1.024 4.288,-2.624 1.856,-1.6 2.368,-3.392 l 1.28,0.384 q -0.704,2.24 -2.688,4.032 -1.984,1.792 -4.672,2.816 -2.624,1.024 -5.504,1.024 z m 34.04806,0 q -3.264,0 -6.208,-1.344 -2.88,-1.408 -5.12,-3.776 -2.176,-2.432 -3.456,-5.568 -1.216,-3.2 -1.216,-6.784 0,-4.672 2.112,-8.512 2.112,-3.84 5.632,-6.08 3.584,-2.304 7.936,-2.304 4.416,0 8,2.304 3.648,2.304 5.824,6.208 2.176,3.84 2.176,8.64 0,0.192 0,0.384 0,0.128 0,0.32 h -30.4 q 0.32,4.288 2.368,7.744 2.048,3.456 5.312,5.504 3.264,1.984 7.104,1.984 3.84,0 7.168,-1.92 3.328,-1.984 4.736,-5.056 l 1.216,0.32 q -0.896,2.24 -2.944,4.096 -1.984,1.792 -4.672,2.816 -2.688,1.024 -5.568,1.024 z m -14.72,-17.792 h 29.056 q -0.256,-4.48 -2.24,-7.872 -1.984,-3.456 -5.184,-5.44 -3.2,-1.984 -7.168,-1.984 -3.904,0 -7.104,1.984 -3.2,1.984 -5.184,5.44 -1.92,3.456 -2.176,7.872 z"
           id="text2"
           transform="matrix(0.26458333,0,0,0.26458333,14.446192,-17.923979)"
           aria-label="Invoice" />
        <path
           style="font-weight:100;font-size:64px;line-height:1.25;font-family:Raleway;-inkscape-font-specification:'Raleway Thin';white-space:pre;stroke:#a7e9db;stroke-opacity:1"
           d="m 87.224344,227.33056 q 0,-4.096 1.408,-8.064 1.472,-4.032 4.224,-7.296 2.752,-3.328 6.72,-5.312 3.967996,-1.984 9.087996,-1.984 6.08,0 10.304,2.816 4.224,2.752 6.272,7.104 l -1.216,0.384 q -1.728,-3.328 -4.288,-5.312 -2.56,-1.984 -5.504,-2.816 -2.88,-0.896 -5.824,-0.896 -4.736,0 -8.447996,1.856 -3.712,1.856 -6.272,4.992 -2.56,3.136 -3.904,6.976 -1.28,3.776 -1.28,7.744 0,4.352 1.536,8.32 1.536,3.904 4.288,6.976 2.752,3.072 6.399996,4.864 3.648,1.792 7.872,1.792 3.008,0 6.144,-1.024 3.136,-1.024 5.888,-3.136 2.752,-2.112 4.48,-5.44 l 1.216,0.32 q -1.536,3.392 -4.48,5.76 -2.944,2.368 -6.528,3.584 -3.52,1.216 -6.976,1.216 -4.608,0 -8.511996,-1.984 -3.84,-2.048 -6.72,-5.376 -2.816,-3.392 -4.352,-7.552 -1.536,-4.224 -1.536,-8.512 z m 61.120036,-8.896 q -4.672,0.192 -8.128,3.136 -3.456,2.88 -4.8,7.808 v 20.992 h -1.28 v -33.216 h 1.28 v 8.576 q 1.728,-3.52 4.608,-5.76 2.944,-2.304 6.208,-2.688 0.64,-0.064 1.152,-0.064 0.576,-0.064 0.96,-0.064 z m 18.36805,32.576 q -3.264,0 -6.208,-1.344 -2.88,-1.408 -5.12,-3.776 -2.176,-2.432 -3.456,-5.568 -1.216,-3.2 -1.216,-6.784 0,-4.672 2.112,-8.512 2.112,-3.84 5.632,-6.08 3.584,-2.304 7.936,-2.304 4.416,0 8,2.304 3.648,2.304 5.824,6.208 2.176,3.84 2.176,8.64 0,0.192 0,0.384 0,0.128 0,0.32 h -30.4 q 0.32,4.288 2.368,7.744 2.048,3.456 5.312,5.504 3.264,1.984 7.104,1.984 3.84,0 7.168,-1.92 3.328,-1.984 4.736,-5.056 l 1.216,0.32 q -0.896,2.24 -2.944,4.096 -1.984,1.792 -4.672,2.816 -2.688,1.024 -5.568,1.024 z m -14.72,-17.792 h 29.056 q -0.256,-4.48 -2.24,-7.872 -1.984,-3.456 -5.184,-5.44 -3.2,-1.984 -7.168,-1.984 -3.904,0 -7.104,1.984 -3.2,1.984 -5.184,5.44 -1.92,3.456 -2.176,7.872 z m 35.13602,7.616 q 0,-2.816 1.728,-4.928 1.792,-2.112 4.864,-3.328 3.072,-1.216 7.104,-1.216 2.816,0 5.76,0.512 3.008,0.448 5.376,1.344 v -3.776 q 0,-5.184 -3.008,-8.32 -2.944,-3.2 -7.872,-3.2 -2.368,0 -5.184,1.088 -2.752,1.024 -5.568,3.008 l -0.768,-1.024 q 3.2,-2.176 6.08,-3.264 2.88,-1.088 5.44,-1.088 5.568,0 8.832,3.456 3.328,3.456 3.328,9.344 v 18.368 q 0,0.64 0.256,0.96 0.32,0.32 0.768,0.32 v 1.28 q -0.384,0 -0.576,0 -0.192,-0.064 -0.32,-0.128 -0.64,-0.256 -1.024,-0.896 -0.384,-0.704 -0.384,-1.536 v -3.072 q -2.304,2.944 -6.016,4.608 -3.712,1.664 -8.064,1.664 -3.008,0 -5.44,-1.344 -2.432,-1.344 -3.904,-3.648 -1.408,-2.368 -1.408,-5.184 z m 23.872,3.008 q 0.512,-0.704 0.704,-1.344 0.256,-0.704 0.256,-1.28 v -6.592 q -2.56,-1.024 -5.376,-1.472 -2.752,-0.512 -5.76,-0.512 -5.568,0 -9.024,2.24 -3.392,2.24 -3.392,5.952 0,2.496 1.216,4.544 1.28,1.984 3.456,3.2 2.176,1.152 4.8,1.152 4.288,0 7.808,-1.6 3.584,-1.6 5.312,-4.288 z m 25.21603,4.992 q 0,0 -0.832,0.512 -0.768,0.448 -2.112,0.896 -1.344,0.448 -3.136,0.448 -1.536,0 -2.88,-0.64 -1.28,-0.64 -2.112,-1.792 -0.768,-1.152 -0.768,-2.688 v -27.136 h -4.8 v -1.28 h 4.8 v -11.584 h 1.28 v 11.584 h 8 v 1.28 h -8 v 27.136 q 0.128,1.856 1.472,2.88 1.344,0.96 3.008,0.96 2.24,0 3.776,-0.768 1.536,-0.768 1.6,-0.832 z m 18.49597,2.176 q -3.264,0 -6.144,-1.344 -2.88,-1.344 -5.056,-3.712 -2.176,-2.432 -3.392,-5.504 -1.216,-3.136 -1.216,-6.592 0,-3.52 1.216,-6.592 1.28,-3.136 3.456,-5.504 2.176,-2.432 5.056,-3.776 2.88,-1.344 6.08,-1.344 3.2,0 6.08,1.344 2.88,1.344 5.056,3.776 2.176,2.368 3.392,5.504 1.28,3.072 1.28,6.592 0,3.456 -1.216,6.592 -1.216,3.072 -3.456,5.504 -2.176,2.368 -5.056,3.712 -2.816,1.344 -6.08,1.344 z m -14.528,-17.024 q 0,4.288 1.92,7.872 1.984,3.584 5.248,5.76 3.328,2.112 7.296,2.112 3.968,0 7.296,-2.176 3.328,-2.176 5.312,-5.824 1.984,-3.648 1.984,-7.936 0,-4.288 -1.984,-7.872 -1.984,-3.648 -5.312,-5.824 -3.264,-2.176 -7.232,-2.176 -3.904,0 -7.232,2.24 -3.328,2.176 -5.312,5.824 -1.984,3.648 -1.984,8 z m 52.86403,-15.552 q -4.672,0.192 -8.128,3.136 -3.456,2.88 -4.8,7.808 v 20.992 h -1.28 v -33.216 h 1.28 v 8.576 q 1.728,-3.52 4.608,-5.76 2.944,-2.304 6.208,-2.688 0.64,-0.064 1.152,-0.064 0.576,-0.064 0.96,-0.064 z"
           id="text3"
           transform="matrix(0.26458333,0,0,0.26458333,14.981236,23.27442)"
           aria-label="Creator" />
      </g>
    </g>
  </g>
</svg>
